<svg preserveAspectRatio="none" width="100%" height="100%" overflow="visible" style="display: block;" viewBox="0 0 56 23" fill="none" xmlns="http://www.w3.org/2000/svg">
<g id="Apple_Pay_logo 1" clip-path="url(#clip0_32_1305)">
<path id="XMLID_34_" d="M10.2371 2.96527C9.58084 3.74215 8.53084 4.3549 7.48084 4.26736C7.34959 3.21694 7.86366 2.10086 8.46522 1.41151C9.12147 0.61275 10.2699 0.0437678 11.1996 0C11.309 1.0942 10.8824 2.16651 10.2371 2.96527ZM11.1887 4.47526C9.66834 4.38773 8.36678 5.33968 7.64491 5.33968C6.91209 5.33968 5.80741 4.51903 4.60428 4.54091C3.04022 4.5628 1.58553 5.4491 0.787094 6.86061C-0.853531 9.68363 0.360531 13.8635 1.94647 16.1613C2.72303 17.2992 3.65272 18.5466 4.87772 18.5029C6.03709 18.4591 6.49647 17.7479 7.89647 17.7479C9.30741 17.7479 9.71209 18.5029 10.9371 18.481C12.2058 18.4591 13.0043 17.343 13.7808 16.205C14.6668 14.9139 15.0277 13.6556 15.0496 13.5899C15.0277 13.568 12.5996 12.638 12.5777 9.83682C12.5558 7.49524 14.4918 6.37916 14.5793 6.31351C13.4855 4.6941 11.7793 4.51903 11.1887 4.47526ZM19.9715 1.30209V18.3606H22.6183V12.5285H26.2824C29.6293 12.5285 31.9808 10.2307 31.9808 6.90438C31.9808 3.57802 29.673 1.30209 26.3699 1.30209H19.9715ZM22.6183 3.53425H25.6699C27.9668 3.53425 29.2793 4.75975 29.2793 6.91532C29.2793 9.07088 27.9668 10.3073 25.659 10.3073H22.6183V3.53425ZM36.8152 18.4919C38.4777 18.4919 40.0199 17.6494 40.7199 16.3145H40.7746V18.3606H43.2246V9.86965C43.2246 7.40771 41.2558 5.82112 38.2262 5.82112C35.4152 5.82112 33.3371 7.42959 33.2605 9.63987H35.6449C35.8418 8.58944 36.8152 7.90009 38.1496 7.90009C39.7683 7.90009 40.6762 8.65509 40.6762 10.0447V10.9857L37.373 11.1827C34.2996 11.3687 32.6371 12.627 32.6371 14.8154C32.6371 17.0257 34.3543 18.4919 36.8152 18.4919ZM37.5262 16.4676C36.1152 16.4676 35.2183 15.7892 35.2183 14.7498C35.2183 13.6775 36.0824 13.0538 37.734 12.9553L40.6762 12.7693V13.7322C40.6762 15.3297 39.3199 16.4676 37.5262 16.4676ZM46.4949 23C49.0762 23 50.2902 22.0152 51.3512 19.0281L55.9996 5.98525H53.309L50.1918 16.0628H50.1371L47.0199 5.98525H44.2527L48.7371 18.4044L48.4965 19.1594C48.0918 20.4396 47.4355 20.932 46.2652 20.932C46.0574 20.932 45.6527 20.9101 45.4887 20.8882V22.9343C45.6418 22.9781 46.298 23 46.4949 23Z" fill="var(--fill-0, black)"/>
</g>
<defs>
<clipPath id="clip0_32_1305">
<rect width="56" height="23" fill="white"/>
</clipPath>
</defs>
</svg>
