<svg preserveAspectRatio="none" width="100%" height="100%" overflow="visible" style="display: block;" viewBox="0 0 40 40" fill="none" xmlns="http://www.w3.org/2000/svg">
<g id="fingerprint 1 [Vectorized]">
<path id="Vector" d="M19.8947 4.98739C25.2088 4.98185 30.3132 7.02741 34.1496 10.6856L34.5168 11.045C35.2522 11.777 35.9333 12.5614 36.5548 13.3917L36.8175 13.7501C36.8885 13.8486 36.9851 13.9786 37.0763 14.1104C37.1682 14.2433 37.2495 14.3712 37.2922 14.463C37.3612 14.613 37.3961 14.7764 37.3947 14.9415V14.9434C37.3957 15.2133 37.3022 15.4734 37.132 15.6798L37.0548 15.7647C36.8337 15.9827 36.5332 16.1011 36.2228 16.0938C35.9699 16.0888 35.7259 16.0003 35.5285 15.8419C35.4813 15.8038 35.4153 15.732 35.3371 15.6349C35.2602 15.5394 35.1753 15.4253 35.09 15.3067C34.9216 15.0724 34.7475 14.8156 34.6388 14.6739H34.6379C34.1837 14.0742 33.6937 13.5022 33.1701 12.962C29.8338 9.46021 25.2439 7.42574 20.4084 7.30673H20.4064C19.9117 7.30435 19.358 7.30176 18.8605 7.33505C14.1323 7.6515 9.84974 9.72946 6.60465 13.1895V13.1905C6.13475 13.6961 5.69082 14.2252 5.27555 14.7765L5.27458 14.7774C5.1663 14.9234 5.06527 15.0808 4.96598 15.2286C4.86565 15.378 4.76624 15.5204 4.65641 15.6456C4.43861 15.8938 4.1857 16.0697 3.82145 16.0929H3.82047C3.50986 16.1132 3.20417 16.0063 2.9738 15.797L2.87126 15.6925C2.65156 15.4356 2.56481 15.0977 2.61833 14.755C2.64459 14.587 2.72778 14.4118 2.8361 14.2364C2.89031 14.1487 2.94874 14.0632 3.00797 13.9806L3.18278 13.7403C3.70445 13.0128 4.27024 12.3175 4.87809 11.6602L4.87907 11.6612C8.82102 7.47895 13.8391 5.16696 19.6017 4.99227L19.6007 4.9913C19.6985 4.9887 19.7967 4.98749 19.8947 4.98739Z" fill="var(--fill-0, #D77129)" stroke="var(--stroke-0, #FFE7C4)" stroke-width="0.2"/>
<path id="Vector_2" d="M19.8329 24.5597C20.0583 24.5479 20.282 24.6026 20.4764 24.715L20.5584 24.7677C20.8423 24.9692 20.961 25.1969 21.0155 25.4532C21.0433 25.5842 21.054 25.7242 21.0604 25.8751C21.0666 26.0216 21.0688 26.1895 21.078 26.3536C21.1726 28.0463 21.8592 29.8935 22.9266 31.4581C23.994 33.0226 25.4493 34.314 27.0887 34.8839V34.8849C27.3858 34.9862 27.6919 35.059 28.0028 35.1036L28.0038 35.1046C28.1223 35.1211 28.2401 35.1292 28.3524 35.1368C28.4657 35.1445 28.5738 35.1513 28.6795 35.1652C28.8895 35.1926 29.0828 35.2464 29.2645 35.378H29.2655C29.501 35.5487 29.6746 35.8311 29.7186 36.1183V36.1193C29.7614 36.3861 29.7085 36.6579 29.5711 36.8878L29.5077 36.9835C29.3022 37.2583 29.0347 37.4044 28.6952 37.4552C27.8546 37.5027 26.927 37.2786 26.0418 36.9093C25.1557 36.5395 24.3181 36.0277 23.6639 35.5109C21.0882 33.4758 19.26 30.4054 18.8446 27.1368C18.8185 26.932 18.7846 26.5982 18.7674 26.2687C18.75 25.9349 18.7503 25.6183 18.7889 25.4415C18.8262 25.2705 18.9021 25.1103 19.0106 24.9728C19.2261 24.7011 19.4813 24.6041 19.8338 24.5607L19.8329 24.5597Z" fill="var(--fill-0, #D77129)" stroke="var(--stroke-0, #FFE7C4)" stroke-width="0.2"/>
<path id="Vector_3" d="M13.8073 11.1409C17.5774 9.52797 21.8302 9.46075 25.6491 10.9544C29.7163 12.5685 32.9582 15.8794 34.6774 19.887V19.888C35.5128 21.8284 36.0004 23.9005 36.1178 26.01V26.011C36.1977 27.2949 36.1931 28.4108 35.7184 29.6038C35.168 30.9981 34.1195 32.1339 32.7819 32.7952L32.5104 32.9212C31.1005 33.5289 29.5049 33.5397 28.0866 32.9514C26.6206 32.3417 25.4559 31.1758 24.8473 29.7093C24.6439 29.2234 24.5052 28.7131 24.4352 28.1917L24.4098 27.968C24.3708 27.5316 24.3815 27.0433 24.3766 26.5911C24.3639 25.465 24.0533 24.456 23.3258 23.5686C22.8721 23.0117 22.2885 22.5754 21.6266 22.2962V22.2952C19.3155 21.3344 16.9979 22.5647 16.0924 24.7981C15.3629 26.5975 15.6168 28.4214 16.3463 30.1565V30.1575C17.6266 33.1014 20.24 35.9759 23.1481 37.3987C23.3354 37.4904 23.5279 37.5356 23.7116 37.5677C23.9009 37.6007 24.0682 37.6191 24.235 37.6575C24.3968 37.6948 24.5422 37.7485 24.6696 37.845C24.7645 37.917 24.8531 38.0156 24.9313 38.1555L25.0055 38.3098C25.1089 38.5609 25.1201 38.839 25.0397 39.096L24.9996 39.2054C24.8562 39.5427 24.6091 39.733 24.2594 39.8597C24.2234 39.8728 24.2032 39.8811 24.1715 39.8997H23.5934C23.4857 39.86 23.3687 39.8317 23.2565 39.8069C23.1341 39.7799 23.0185 39.7563 22.9137 39.7239C22.5482 39.6111 22.1962 39.4614 21.8502 39.2913H21.8512C18.7308 37.7 15.8919 34.6288 14.4186 31.4739C13.3481 29.1817 12.9616 26.6228 13.8502 24.2356C14.4967 22.4993 15.6906 21.02 17.3805 20.2415C18.9195 19.5362 20.6769 19.4753 22.2614 20.0716C23.951 20.7046 25.318 21.9859 26.0592 23.6311C26.3634 24.3066 26.5586 25.0263 26.6364 25.763C26.6715 26.1016 26.6727 26.4329 26.6735 26.7669C26.6742 27.0995 26.6747 27.4354 26.7076 27.7747C26.8393 29.1291 27.7623 30.3714 29.0475 30.8548C29.9116 31.1782 30.8689 31.1426 31.7067 30.7561H31.7076C32.5918 30.339 33.2756 29.5895 33.611 28.6712C33.8829 27.924 33.8976 26.8215 33.7975 25.7337C33.697 24.6419 33.4789 23.548 33.2731 22.8069C33.0351 21.9505 32.7252 21.1154 32.3453 20.3118C30.7513 16.9365 27.926 14.2025 24.3864 12.9397L24.3854 12.9388L24.0719 12.8343C20.9262 11.8275 17.519 12.0136 14.5016 13.3567L14.2008 13.4954C10.8441 15.1238 8.26414 18.0099 7.02112 21.5276C5.68919 25.2335 5.89244 29.3178 7.58557 32.8733C7.89253 33.5155 8.24482 34.1358 8.64026 34.7278H8.64124C8.74483 34.8823 8.93944 35.1342 9.11487 35.3723C9.2038 35.4931 9.28852 35.6118 9.35706 35.7161C9.39198 35.7693 9.42149 35.8171 9.44495 35.8587L9.49671 35.9632C9.59009 36.2196 9.59217 36.5004 9.50257 36.7581C9.39863 37.0543 9.17847 37.2954 8.89319 37.4261L8.89222 37.427C8.60931 37.5582 8.31477 37.5666 8.02307 37.4554C7.88359 37.4017 7.75569 37.3217 7.6471 37.219L7.64612 37.218C7.48744 37.0703 7.30172 36.8099 7.15686 36.6145C6.4206 35.6198 5.79657 34.546 5.29749 33.4134C3.47625 29.277 3.36713 24.5867 4.99475 20.3704C6.63578 16.1896 9.67703 12.9357 13.8073 11.1399V11.1409Z" fill="var(--fill-0, #D77129)" stroke="var(--stroke-0, #FFE7C4)" stroke-width="0.2"/>
<path id="Vector_4" d="M16.3172 15.4019C19.1159 14.4182 22.1922 14.5952 24.8592 15.8941C27.4511 17.1686 29.4731 19.3545 30.5448 22.022L30.7459 22.562C31.1333 23.6768 31.3538 24.8428 31.4002 26.022C31.4122 26.3431 31.4346 26.6388 31.3416 26.9078L31.2948 27.022C31.1561 27.3009 30.9139 27.5139 30.62 27.6167C30.3384 27.7139 30.0291 27.6917 29.7645 27.5552H29.7635C29.4803 27.4117 29.322 27.2352 29.2303 27.0269C29.1367 26.8142 29.109 26.5595 29.1034 26.2525C29.0447 23.0128 27.2448 19.8779 24.4227 18.2671L24.1463 18.1158C22.0495 17.0008 19.592 16.7765 17.328 17.4937L17.327 17.4947C15.1654 18.1931 13.3438 19.6645 12.2069 21.6187L11.9891 22.0161C10.7997 24.2997 10.5571 26.8781 11.3602 29.3208C12.225 31.951 13.7952 34.3048 15.5262 36.4214C15.7845 36.7368 16.0511 37.0453 16.326 37.3462C16.3859 37.4125 16.4547 37.4852 16.5252 37.5601C16.5961 37.6354 16.6695 37.7138 16.7401 37.7925C16.8824 37.9513 17.0081 38.1067 17.0799 38.2398C17.222 38.5032 17.2323 38.828 17.1327 39.1206C17.0331 39.4131 16.8275 39.6639 16.5516 39.7847C16.5082 39.8037 16.4595 39.8194 16.4022 39.8404C16.3588 39.8562 16.3111 39.8763 16.2674 39.8999H15.8231C15.7568 39.8693 15.6579 39.8274 15.575 39.7896C15.4729 39.743 15.3925 39.7013 15.3592 39.6724C15.2141 39.5465 15.0678 39.3978 14.9247 39.2437L14.5106 38.7818L13.9666 38.1558C12.8961 36.8896 11.9294 35.5393 11.076 34.1177L10.6581 33.4009C10.131 32.457 9.68299 31.4704 9.31821 30.4527C8.98724 29.5321 8.76174 28.5765 8.64633 27.605C8.41675 25.505 8.84362 23.2434 9.75766 21.3413V21.3404C11.0645 18.5653 13.4255 16.4266 16.3163 15.4009L16.3172 15.4019Z" fill="var(--fill-0, #D77129)" stroke="var(--stroke-0, #FFE7C4)" stroke-width="0.2"/>
<path id="Vector_5" d="M21.1564 0.0996094C21.2854 0.135899 21.4917 0.154231 21.6876 0.166992C21.9006 0.180859 22.1073 0.189827 22.2374 0.206055C22.6338 0.255494 23.0283 0.305645 23.422 0.368164C25.4359 0.68984 27.3951 1.29013 29.2443 2.15039C31.0722 3.00231 32.7777 4.0961 34.3136 5.40332C34.4818 5.54654 34.6721 5.69376 34.8429 5.86035C35.0131 6.02636 35.1511 6.20075 35.215 6.38574C35.4312 7.01301 35.0851 7.70084 34.4455 7.88867C34.0947 7.99152 33.8169 7.9186 33.5597 7.76465C33.4266 7.68495 33.302 7.58582 33.1769 7.47754L32.7912 7.13574C32.5542 6.93441 32.313 6.73793 32.0675 6.54688H32.0665C31.1713 5.85828 30.2201 5.24505 29.2228 4.71484C23.1626 1.48787 15.857 1.66223 9.95717 5.17383C9.48651 5.45304 9.02681 5.75037 8.58022 6.06641L8.13783 6.38867C7.86726 6.59293 7.60176 6.80393 7.34096 7.02051H7.33998C7.25364 7.09296 7.15998 7.17826 7.06361 7.26465C6.96661 7.35161 6.86574 7.44049 6.76381 7.52441C6.55726 7.69448 6.35516 7.83296 6.17494 7.88672C5.88503 7.97031 5.57377 7.93484 5.31069 7.78711L5.30971 7.78613C5.05272 7.64398 4.83766 7.39461 4.76479 7.12207C4.65516 6.71197 4.73665 6.40629 4.91518 6.1416C5.09885 5.86932 5.38487 5.63968 5.69252 5.3877C5.85003 5.25867 5.99467 5.13467 6.1476 5.01172C8.78271 2.88907 11.8666 1.39284 15.1652 0.638672L15.1662 0.639648C15.9917 0.455445 16.8268 0.31461 17.6671 0.217773H17.6681C17.8139 0.200079 18.0302 0.191575 18.254 0.176758C18.4624 0.162961 18.6808 0.142315 18.8263 0.0996094H21.1564Z" fill="var(--fill-0, #D77129)" stroke="var(--stroke-0, #FFE7C4)" stroke-width="0.2"/>
</g>
</svg>
