<svg preserveAspectRatio="none" width="100%" height="100%" overflow="visible" style="display: block;" viewBox="0 0 9 16" fill="none" xmlns="http://www.w3.org/2000/svg">
<g id="Icon">
<path id="Icon_2" fill-rule="evenodd" clip-rule="evenodd" d="M6.33496 7.40234L6.81445 6.28711C7.96875 7.3125 8.7998 8.35938 8.7998 10.167C8.83149 12.5859 6.78639 14.0803 4.5 14.0498C2.19521 14.0814 0.173201 12.5653 0.200195 10.1365C0.200195 7.89844 1.71749 7.14433 2.39433 5.80677C2.98437 4.58203 2.66797 3.51953 2.53027 2.00195C4.44531 3.86719 5.82422 5.20703 6.33496 7.40234ZM3.79687 4.88672C3.42969 7.62109 1.2998 7.89844 1.2998 10.167C1.2998 11.4648 2.04687 12.4023 3.32617 12.7832C3.23636 12.5334 3.20335 12.2467 3.35937 12C3.53412 11.7238 4.1088 11.243 4.3584 11.041C4.42515 10.987 4.52829 10.9866 4.59668 11.0391C4.8581 11.2397 5.46708 11.7228 5.64258 12C5.79722 12.2445 5.7623 12.532 5.67188 12.7832C6.54782 12.5238 7.20097 11.9958 7.51172 11.2091C7.86558 10.3133 7.71742 9.1031 7.1582 8.27734L6.25586 10.3838L5.2168 10.0332C5.78238 7.77061 4.79868 6.0703 3.79687 4.88672Z" fill="var(--fill-0, black)"/>
</g>
</svg>
