<svg preserveAspectRatio="none" width="100%" height="100%" overflow="visible" style="display: block;" viewBox="0 0 62 29.5275" fill="none" xmlns="http://www.w3.org/2000/svg">
<g id="Google_Pay_Logo 1" clip-path="url(#clip0_32_1293)">
<path id="Vector" d="M29.2948 15.2675V22.475H26.9698V4.64998H33.0148C34.4873 4.64998 35.8823 5.19248 36.9673 6.19998C38.0523 7.12998 38.5948 8.52498 38.5948 9.99748C38.5948 11.47 38.0523 12.7875 36.9673 13.795C35.8823 14.8025 34.5648 15.345 33.0148 15.345L29.2948 15.2675ZM29.2948 6.81998V13.02H33.1698C34.0223 13.02 34.8748 12.71 35.4173 12.09C36.6573 10.9275 36.6573 8.98998 35.4948 7.82748L35.4173 7.74998C34.7973 7.12998 34.0223 6.74248 33.1698 6.81998H29.2948Z" fill="var(--fill-0, black)"/>
<path id="Vector_2" d="M43.9423 9.91998C45.6473 9.91998 46.9649 10.385 47.9724 11.315C48.9799 12.245 49.4448 13.485 49.4448 15.035V22.475H47.2748V20.77H47.1974C46.2674 22.165 44.9498 22.8625 43.3998 22.8625C42.0823 22.8625 40.9198 22.475 39.9898 21.7C39.1373 20.925 38.5948 19.84 38.5948 18.6775C38.5948 17.4375 39.0598 16.43 39.9898 15.655C40.9198 14.88 42.2373 14.57 43.7873 14.57C45.1823 14.57 46.2673 14.8025 47.1198 15.345V14.8025C47.1198 14.0275 46.8098 13.2525 46.1898 12.7875C45.5698 12.245 44.7948 11.935 43.9423 11.935C42.6248 11.935 41.6173 12.4775 40.9198 13.5625L38.9048 12.3225C40.1448 10.695 41.7723 9.91998 43.9423 9.91998ZM40.9974 18.755C40.9974 19.375 41.3074 19.9175 41.7724 20.2275C42.3149 20.615 42.9348 20.8475 43.5548 20.8475C44.4848 20.8475 45.4148 20.46 46.1123 19.7625C46.8873 19.065 47.2748 18.2125 47.2748 17.2825C46.5773 16.74 45.5698 16.43 44.2523 16.43C43.3223 16.43 42.5473 16.6625 41.9273 17.1275C41.3073 17.515 40.9974 18.0575 40.9974 18.755Z" fill="var(--fill-0, black)"/>
<path id="Vector_3" d="M61.9999 10.3075L54.3274 27.9H52.0024L54.8699 21.7775L49.8324 10.385H52.3124L55.9549 19.1425H56.0324L59.5974 10.385H61.9999V10.3075Z" fill="var(--fill-0, black)"/>
<path id="Vector_4" d="M20.0726 13.7175C20.0726 13.02 19.9951 12.3225 19.9176 11.625H10.2301V15.5775H15.7326C15.5001 16.8175 14.8026 17.98 13.7176 18.6775V21.235H17.0501C18.9876 19.4525 20.0726 16.8175 20.0726 13.7175Z" fill="var(--fill-0, #4285F4)"/>
<path id="Vector_5" d="M10.2301 23.715C13.0201 23.715 15.3451 22.785 17.0501 21.235L13.7176 18.6775C12.7876 19.2975 11.6251 19.685 10.2301 19.685C7.59511 19.685 5.27011 17.9025 4.49511 15.4225H1.08511V18.0575C2.86761 21.545 6.35511 23.715 10.2301 23.715Z" fill="var(--fill-0, #34A853)"/>
<path id="Vector_6" d="M4.49498 15.4225C4.02998 14.1825 4.02998 12.7875 4.49498 11.47V8.83499H1.08498C-0.387519 11.7025 -0.387519 15.1125 1.08498 18.0575L4.49498 15.4225Z" fill="var(--fill-0, #FBBC04)"/>
<path id="Vector_7" d="M10.2302 7.28501C11.7027 7.28501 13.0977 7.82751 14.1827 8.83501L17.1277 5.89001C15.2677 4.18501 12.7877 3.17751 10.3077 3.25501C6.43269 3.25501 2.86769 5.42501 1.16269 8.91251L4.57269 11.5475C5.27019 9.06751 7.59519 7.28501 10.2302 7.28501Z" fill="var(--fill-0, #EA4335)"/>
</g>
<defs>
<clipPath id="clip0_32_1293">
<rect width="62" height="29.5275" fill="white"/>
</clipPath>
</defs>
</svg>
