<svg preserveAspectRatio="none" width="100%" height="100%" overflow="visible" style="display: block;" viewBox="0 0 13 16" fill="none" xmlns="http://www.w3.org/2000/svg">
<g id="Icon">
<path id="Icon_2" fill-rule="evenodd" clip-rule="evenodd" d="M7.35359 5.64642L6.91425 5.20708C6.52373 4.81656 6.52373 4.18339 6.91425 3.79287L7.35359 3.35353L6.64649 2.64642L6.20715 3.08576C5.4261 3.86681 5.4261 5.13314 6.20715 5.91419L6.64649 6.35353L7.35359 5.64642ZM4.35358 8.64641L3.91425 8.20708C3.1332 7.42603 1.86685 7.42603 1.08581 8.20709L0.646484 8.64643L1.3536 9.35353L1.79292 8.91419C2.18345 8.52366 2.81662 8.52366 3.20714 8.91419L3.64647 9.35352L4.35358 8.64641ZM5.35358 6.64644L3.35358 4.64644L2.64647 5.35355L4.64647 7.35355L5.35358 6.64644ZM10.5481 12.5481L9.23137 9.47577L7.47576 11.2314L10.5481 12.5481ZM8.33138 7.37582L8.8071 8.48582L6.48581 10.8071L5.3758 10.3314L8.33138 7.37582ZM11.9498 13.2801C12.1311 13.7033 11.7033 14.1311 11.2801 13.9498L4.30308 10.9596L3.62428 10.6687L4.14649 10.1465L8.14649 6.1465L8.6687 5.62429L8.95961 6.30309L11.9498 13.2801Z" fill="var(--fill-0, #D77129)"/>
</g>
</svg>
