<svg preserveAspectRatio="none" width="100%" height="100%" overflow="visible" style="display: block;" viewBox="0 0 200 200" fill="none" xmlns="http://www.w3.org/2000/svg">
<g id="image 8 [Vectorized]">
<path id="Vector" d="M94.5936 28.0853C94.8129 28.1284 95.2527 28.2347 95.3462 28.4751C98.3461 36.1567 97.53 44.547 88.4873 47.4192C84.7366 48.6105 86.0832 51.5442 85.8679 54.6748C85.781 55.9348 85.8167 57.2676 85.7744 58.5387C87.1043 56.5714 87.5716 54.2695 88.7263 52.093C90.0876 49.4079 93.234 47.8063 96.0256 46.9934C98.7302 46.2062 106.047 45.6724 106.942 49.1288C106.652 50.9917 104.44 53.9626 103.054 55.1807C98.4504 59.2258 94.0175 58.5584 88.5678 58.3113C86.6059 60.1919 86.4617 61.2819 85.8334 63.8356C87.924 63.8026 90.9625 63.573 92.9261 64.1159C94.1686 64.4595 92.885 68.6866 94.9935 68.8547C98.9278 69.1685 97.608 66.916 98.1105 64.7097C98.6355 64.0888 98.9286 63.8587 99.7581 63.7773C100.523 63.7022 102.501 63.5066 103.066 64.0197C103.677 64.5751 103.745 65.6993 103.792 66.475C103.939 68.8633 103.735 71.3565 103.757 73.763C103.791 77.357 104.096 81.1727 103.766 84.7445C103.715 85.2947 103.588 86.2843 103.186 86.6903C101.786 88.1051 76.5599 87.3949 73.0895 87.3703C70.186 87.3789 66.8426 87.5349 63.9914 87.2583C61.7199 87.0381 62.3903 80.1543 62.8869 78.629C64.5173 76.8645 68.1233 79.0678 68.8463 76.5931C70.0672 72.4137 65.577 73.5479 63.3131 73.1663C63.0235 73.1175 62.6073 72.5158 62.5945 72.2732C62.4653 69.8322 62.0485 66.8109 63.1485 64.5458C64.4634 62.4124 67.0528 64.597 68.8918 64.1176C69.1352 64.0541 69.8088 63.53 69.813 63.4741C70.0017 60.9696 69.5957 60.7306 70.867 58.4912C73.844 56.298 76.077 56.7178 79.1215 58.3096C79.322 58.6465 79.514 58.9885 79.6971 59.3353C80.5835 61.0356 80.3386 62.0652 79.7977 63.8012L84.0704 63.8762C83.9557 58.3758 84.7071 54.8677 81.0223 50.3664C79.2421 50.3578 77.9729 50.2079 76.2173 50.091C70.1956 49.6904 65.0461 42.4141 66.1961 36.4518C66.5092 36.186 67.0058 35.8198 67.4084 35.7986C73.8349 35.4708 82.7929 39.839 82.5417 47.2238C82.5067 48.2461 82.8313 50.0974 83.7143 50.6676C84.8409 48.1767 81.0974 40.9952 83.8881 36.1988C86.5985 31.54 89.6486 29.7986 94.5936 28.0853ZM64.6162 65.6092L64.6275 71.4079C67.0734 71.3144 68.2985 71.0705 70.1568 72.7914C70.255 72.8825 70.3519 72.9745 70.4479 73.0678L71.1586 75.6237C69.938 79.3855 68.6854 80.0972 64.6484 79.6481C64.6226 81.1399 64.6526 84.0825 64.4799 85.4545C67.9926 85.2544 71.7746 85.2908 75.3109 85.3021L83.9259 85.2477C83.8785 83.8302 83.8002 82.335 83.8408 80.9236C79.3612 81.4709 78.0938 80.803 76.9989 76.3455C78.2434 72.3288 79.6801 71.4746 83.8986 72.1213C83.8625 69.9838 83.7876 67.8866 83.9919 65.7551C81.9774 65.8491 79.6269 66.2215 77.9597 65.1603C76.4582 62.7626 81.343 59.257 74.3647 58.8291C67.0479 61.8026 79.4244 66.8599 64.6162 65.6092ZM92.4745 69.7374C90.5323 64.4617 92.1056 65.8122 85.9587 65.6247C86.0264 67.4281 86.4563 73.2265 85.6587 74.5441C83.8708 75.1537 80.8493 72.1989 79.2585 75.3031C78.3337 77.1077 80.0706 78.6497 81.3988 79.3176C83.185 79.0947 84.3123 78.4127 85.7389 79.3887C86.4398 80.3239 86.0077 83.9356 85.8817 85.2047C90.8365 85.3218 96.6109 85.3398 101.57 85.2157C101.254 80.173 101.713 71.2489 101.38 65.8826C101.162 65.6811 100.974 65.5063 100.814 65.3587C98.6401 67.3643 101.445 69.2169 96.1964 71.0774C94.5838 70.6379 93.9988 70.4545 92.4745 69.7374ZM67.7374 37.5567C68.6302 41.2536 69.4438 44.7003 72.9425 46.8293C74.1624 47.5715 78.5274 49.1089 79.7903 48.6526C80.7031 46.7572 75.1259 43.1153 73.6333 42.3593L73.4424 41.7064C75.6589 40.6317 80.2909 46.234 81.6154 46.974C79.1505 40.7087 74.3342 37.8533 67.7374 37.5567ZM86.3359 46.2502C94.1556 43.9997 95.8509 39.0139 94.3916 31.3906C94.2956 30.8883 94.11 30.6174 93.7188 30.3297C89.8753 32.0935 86.5616 34.295 84.9883 38.4382C84.4947 39.7381 83.9744 43.0468 84.8235 44.1872C86.3534 41.7354 87.6297 37.7854 90.159 36.3026L90.6761 36.2901L90.7427 36.613C88.428 40.4131 87.4734 41.8439 86.3359 46.2502ZM97.8854 48.313C93.4513 49.1042 91.0814 50.9356 88.9032 54.8953C92.2498 52.5891 94.7617 50.7698 99.3605 50.8394C99.5123 50.8416 99.6742 50.9506 99.8022 51.0279C99.2979 51.7869 95.2209 52.913 93.3629 53.8772C92.5227 54.4425 90.5309 55.6131 90.1849 56.3893C90.4903 56.8507 90.4915 56.772 91.1338 56.8955C96.2129 57.8725 102.323 54.691 104.591 50.0708C104.785 49.6754 104.499 49.3124 104.296 48.9615C102.961 48.1454 99.4614 48.156 97.8854 48.313Z" fill="var(--fill-0, #D77129)"/>
<path id="Vector_2" d="M63.3674 48.313C64.0498 48.2655 63.7941 48.1914 64.3552 48.5327C64.2078 49.0852 64.0463 49.4836 63.5332 49.82C59.6922 52.3378 56.379 54.2438 53.1532 57.6111C48.5951 62.2748 45.2187 67.9613 43.3056 74.1956C41.6119 79.6855 40.9428 85.4402 41.3311 91.1722C42.504 108.211 51.6459 117.138 59.2143 131.493C61.4919 111.361 86.5201 106.057 99.6298 94.9017C109.939 86.1287 117.696 74.0135 116.187 59.9854C115.661 55.0914 113.3 52.2273 110.288 48.6265C115.838 50.7082 120.976 55.6424 124.137 60.5406C130.772 70.8224 133.075 81.2986 130.638 93.246C132.058 96.3212 133.915 99.1754 136.151 101.72C142.895 109.398 151.974 113.461 135.601 118.404C138.044 121.911 140.254 123.757 136.349 126.27C135.064 127.096 137.584 128.678 137.538 129.918C137.47 131.747 135.224 132.792 133.956 134.132C134.05 136.587 134.885 139.099 135.088 141.566C136.115 153.255 120.261 148.859 113.637 149.262C103.016 149.907 96.9053 160.59 94.1576 169.645C93.7828 170.881 93.0844 173.943 91.6017 173.99C91.5195 173.898 91.4821 173.861 91.4053 173.752C90.7738 172.861 90.9259 171.271 91.0815 170.253C91.7526 165.864 94.1074 160.802 96.6107 157.149C109.006 139.062 123.032 151.777 131.115 145.654C134.847 142.828 131.153 137.443 131.775 133.78C132.108 131.815 133.991 130.816 135.475 129.726C131.792 126.148 129.607 127.58 127.064 126.001C127.921 124.724 134.523 125.944 135.893 123.759C135.973 122.149 133.777 119.836 132.768 118.291C132.942 116.383 135.253 115.794 136.809 115.392C147.407 112.654 140.135 109.065 135.704 104.7C133.952 102.975 131.107 99.1072 129.363 96.8505C123.621 112.727 108.689 117.951 95.7403 126.301C87.4676 132.001 79.8574 140.087 76.9594 149.912C76.4079 151.782 75.8406 155.976 74.0203 156.565C73.0069 156.165 72.8371 155.117 72.9539 154.159C75.0167 137.26 89.4058 125.491 103.568 118.197C116.318 111.63 127.926 101.289 128.975 86.1804C129.725 75.3744 124.612 64.047 117.679 55.9372C122.618 75.2191 109.646 94.4873 93.24 103.537C85.1184 108.017 77.2958 110.922 70.3956 117.363C61.6477 125.529 61.5047 134.013 61.1629 145.225C60.2821 143.877 59.2527 140.858 58.776 139.188C55.1902 127.264 46.4514 118.552 41.7586 107.024C33.1365 85.842 40.6714 57.2147 63.3674 48.313Z" fill="var(--fill-0, #D77129)"/>
<path id="Vector_3" d="M47.4575 148.642C49.722 149.297 51.9718 151.617 53.3015 153.526C53.9627 153.034 57.1792 150.817 58.3762 150.672C59.7563 150.503 59.7565 152.154 61.2628 151.999C63.1334 151.808 64.8216 151.467 66.6644 151.371C66.7448 153.12 66.6311 156.434 66.0723 158.128C65.9096 158.621 65.9047 158.301 65.8291 159.045C66.9986 159.792 71.1386 159.214 72.1259 160.704C73.9519 163.461 68.0292 169.008 66.2795 170.438C68.0883 171.145 71.142 171.891 71.6443 173.893C71.5877 174.119 71.4339 174.568 71.2454 174.705C64.258 179.77 55.0753 179.242 48.5403 173.681C46.9175 174.181 45.8544 175.303 44.366 176.048C39.7912 178.341 34.2039 178.725 29.3553 177.085C28.0813 176.654 25.0563 175.399 24.3643 174.341C24.2501 172.17 28.4074 171.099 30.114 170.511C27.5709 168.533 24.7374 165.616 23.6708 162.545C22.6278 159.543 28.1391 159.43 29.8219 159.175C31.7126 156.925 24.2075 148.609 35.5109 152.644C35.8099 152.064 36.0542 151.668 36.3997 151.128C38.3456 149.881 41.1051 152.55 42.5543 153.758C43.7791 151.589 45.3012 149.917 47.4575 148.642ZM48.2836 171.379C50.1143 169.999 50.4185 169.597 51.9617 167.982C56.2657 163.481 53.3194 152.22 47.3775 150.562C46.2127 151.674 45.4299 152.517 44.5208 153.758C40.7202 158.944 40.7381 166.391 46.3375 170.31C47.0271 170.793 47.4228 171.161 48.2836 171.379ZM45.4036 171.803C40.5449 167.727 38.6862 160.773 30.5508 160.854C29.2003 160.923 26.5464 160.805 25.6341 161.846C25.8138 163.237 27.7547 166.035 28.7352 167.047C31.8337 170.243 35.7109 171.781 40.1121 172.028C42.1832 172.055 43.3541 172.038 45.4036 171.803ZM57.852 171.892C64.59 170.605 67.5021 167.497 70.7864 161.723C68.1764 161.18 67.0239 160.824 64.3649 161.021C54.5814 163.207 56.3309 167.316 50.7342 172.07C52.5799 172.057 56.1498 172.131 57.852 171.892ZM39.9861 175.622C41.836 174.962 43.5018 174.676 45.3396 174.154C42.5378 173.574 39.4132 173.899 36.4819 173.325C34.5905 172.954 32.9901 172.083 31.205 171.78C29.7552 172.283 28.0542 172.593 27.4245 173.891C28.5708 176.413 37.4378 176.491 39.9861 175.622ZM58.182 175.934C60.5364 176.297 67.1452 176.156 68.6412 174.148C68.718 172.722 65.0239 171.934 63.8503 172.079C62.2179 172.609 61.2144 172.897 59.5946 173.261C58.0678 173.604 54.0934 173.632 53.1189 174.187C53.786 175.049 57.0295 175.728 58.182 175.934ZM31.1545 152.815C30.6965 154.107 31.7264 157.6 32.081 158.998C32.9527 159.414 34.166 160.068 35.0827 160.217C34.3709 157.743 34.7118 156.752 35.2778 154.295L31.1545 152.815ZM54.32 154.935C55.1223 157.263 55.898 160.453 55.5894 162.919L55.9334 163.357C56.717 162.789 58.1896 161.796 58.8445 161.181C60.2029 159.904 60.1429 152.853 57.916 152.596C56.292 153.289 55.6686 153.792 54.32 154.935ZM37.3765 152.402C36.5474 155.496 35.9319 157.293 36.381 160.485C37.9292 161.481 38.8705 162.186 40.306 163.343C40.2619 159.684 40.4463 158.792 41.4744 155.265C40.3938 154.303 38.7797 152.674 37.3765 152.402ZM61.6632 160.261C63.1716 159.711 63.4218 159.616 64.1466 158.12C64.7399 156.894 65.318 154.888 64.9324 153.553C64.5686 153.162 64.7074 153.192 64.277 153.118C63.3527 153.366 61.7376 153.693 61.0394 154.247C61.0399 155.378 60.858 159.956 61.6632 160.261Z" fill="var(--fill-0, #D77129)"/>
<path id="Vector_4" d="M154.485 30.6225C156.921 30.5075 158.504 30.4992 160.892 31.1336C164.961 32.2189 168.43 34.8801 170.532 38.529C173.133 43.0847 173.045 49.5948 170.086 53.9817C168.488 56.3506 165.937 58.3836 164.826 61.2016C163.555 64.4259 164.721 66.9843 163.942 70.1973C163.464 72.1675 161.167 74.8817 159.483 75.8387C155.793 77.0335 154.107 75.5626 152.312 72.6144C147.502 70.7744 151.072 65.5692 149.538 61.9359C147.552 57.2348 143.315 55.1376 142.076 49.7457C139.777 39.7356 145.07 33.08 154.485 30.6225ZM151.707 63.9608C153.208 63.9893 154.765 63.9972 156.26 64.0531C156.216 60.2699 156.219 56.4862 156.267 52.7032C153.867 52.1185 152.111 50.9599 150.704 48.9141C148.834 46.1958 151.629 42.8861 154.619 45.0627C156.258 46.2568 155.896 47.7159 156.808 48.4731C156.957 48.3319 157.093 48.2494 157.146 48.089C157.932 46.6916 158.945 44.7438 160.576 44.4214C163.873 43.7705 164.081 47.46 162.556 49.3898C160.923 51.4555 160.041 51.6071 157.963 52.5883L157.724 64.0085C159.207 64.0066 160.786 63.9758 162.259 64.0088C163.277 55.5894 170.937 54.1384 170.65 45.2773C170.414 37.9664 163.184 31.8379 155.992 32.338C148.474 33.3027 142.382 39.0723 143.239 47.1678C143.983 54.1995 150.526 56.3843 151.707 63.9608ZM160.45 45.6984C159.678 46.876 158.418 48.8516 158.279 50.2484L158.5 50.6225C158.85 50.5607 159.048 50.5656 159.307 50.3247C160.403 49.5198 162.343 47.9735 162.043 46.4251C161.488 45.8205 161.426 45.8067 160.45 45.6984ZM162.501 70.6703L162.697 69.9665C161.502 68.5152 153.503 69.0904 151.42 69.2707C151.466 69.8038 151.373 70.0799 151.858 70.4124C153.21 71.3409 160.469 70.9892 161.881 70.7788C162.089 70.7476 162.295 70.7114 162.501 70.6703ZM152.197 45.3448C151.161 48.4987 152.921 49.3738 155.317 50.9375C155.88 49.1715 154.042 45.8773 152.197 45.3448ZM151.263 65.7039C151.479 66.7963 151.296 66.7407 151.952 67.4401C153.214 67.6957 161.612 67.8574 162.733 67.4723C162.702 66.4047 162.888 66.4727 162.315 65.8963C160.172 65.5577 153.74 65.7048 151.263 65.7039Z" fill="var(--fill-0, #D77129)"/>
<path id="Vector_5" d="M45.7 31.1198C47.1163 31.9843 46.9507 35.6388 48.3007 36.7934C49.0634 37.4453 51.2344 38.3421 52.1994 38.7772C52.2946 39.3782 49.2371 40.2021 48.4135 41.0907C46.539 43.1129 47.1252 45.7739 46.0335 47.5514C45.1973 46.7691 45.1997 43.1776 43.954 41.6361C42.6315 39.9998 40.2385 39.958 39.6001 39.0737C40.4442 38.1932 42.1452 37.9978 43.135 37.2763C45.0339 35.8918 45.2858 33.2366 45.7 31.1198ZM43.1766 39.3496C44.1875 39.9028 45.9198 41.593 46.2732 41.7503C47.2167 40.3854 47.7394 40.1721 48.0199 38.7452C47.8142 37.9444 46.3972 36.6746 45.655 36.5311C44.7198 37.7886 44.364 38.2798 43.1766 39.3496Z" fill="var(--fill-0, #D77129)"/>
<path id="Vector_6" d="M120.16 30.8879C121.438 31.4161 120.084 32.9086 121.657 34.6879L121.753 34.7944C122.56 35.7133 124.084 36.1787 125.258 36.6448C121.674 37.5376 120.919 37.6713 120.645 41.5145L120.353 41.5061C119.794 40.9679 119.362 39.0371 119.029 38.0717C118.119 37.5539 116.356 36.8323 115.337 36.3803C116.667 35.8876 117.849 35.3718 119.143 34.8043C119.529 33.5492 119.702 32.3239 120.16 30.8879Z" fill="var(--fill-0, #D77129)"/>
<path id="Vector_7" d="M50.4071 137.779C50.882 138.157 50.8774 138.241 51.105 138.83C50.7076 142.261 52.3928 140.279 53.7581 141.75C53.0285 142.42 52.7435 142.279 51.6033 142.505C51.0105 143.338 51.3356 144.217 50.4354 145.782C49.781 145.05 50.0153 144.315 49.9678 143.344C49.9031 142.016 48.1465 142.89 46.918 141.917L47.0986 141.556C48.0136 141.059 48.3579 141.073 49.4055 140.987C49.7099 139.781 49.8984 138.93 50.4071 137.779Z" fill="var(--fill-0, #D77129)"/>
<path id="Vector_8" d="M171.332 26.2725L171.903 26.41C173.059 27.7682 170.24 30.084 169.239 31.1742C168.281 31.071 168.529 31.2273 167.932 30.7263C167.718 29.2684 170.27 27.216 171.332 26.2725Z" fill="var(--fill-0, #D77129)"/>
<path id="Vector_9" d="M142.304 26.1942C143.846 26.5506 145.064 28.4337 145.928 29.6806C146.428 30.4032 146.289 30.6042 146.072 31.3735C144.108 31.198 141.744 28.27 142.304 26.1942Z" fill="var(--fill-0, #D77129)"/>
<path id="Vector_10" d="M134.305 37.1924C135.796 37.2665 138.027 37.8738 139.328 38.6798C139.795 39.4377 139.725 39.0927 139.588 39.9725C138.195 39.6147 134.592 39.0344 134.03 37.8093L134.305 37.1924Z" fill="var(--fill-0, #D77129)"/>
<path id="Vector_11" d="M142.344 59.1426L143.078 59.1716L143.319 59.5053C142.847 60.6885 140.726 61.5772 139.54 62.1934L139.242 62.359L138.664 62.0814L138.611 62.3165L138.909 62.4284C138.488 61.9788 138.593 62.2104 138.557 61.5624C139.202 60.2059 141.02 59.6321 142.344 59.1426Z" fill="var(--fill-0, #D77129)"/>
<path id="Vector_12" d="M178.864 37.1885C179.199 37.3022 179.378 37.4299 179.684 37.6054L179.679 38.0793C178.718 38.9717 176.534 39.3782 175.213 39.676C174.575 39.6046 174.815 39.6792 174.284 39.3083L174.473 38.8636C175.59 38.0656 177.51 37.5527 178.864 37.1885Z" fill="var(--fill-0, #D77129)"/>
<path id="Vector_13" d="M170.741 59.0533C172.051 58.8498 175.514 60.2609 175.864 61.7626C174.098 62.3889 171.353 60.9222 170.741 59.0533Z" fill="var(--fill-0, #D77129)"/>
<path id="Vector_14" d="M176.078 47.5615C177.315 47.5832 179.721 47.5512 180.689 48.1878L180.733 48.6229L180.085 49.0462C178.763 49.077 175.924 49.167 174.977 48.3707C175.273 47.7626 175.338 47.8888 176.078 47.5615Z" fill="var(--fill-0, #D77129)"/>
<path id="Vector_15" d="M133.283 47.8417C134.529 47.725 137.931 47.1632 138.487 48.357L138.172 48.9732C136.714 49.0835 133.977 49.633 133.073 48.498L133.283 47.8417Z" fill="var(--fill-0, #D77129)"/>
<path id="Vector_16" d="M156.54 22.5199L157.013 22.7264C158.126 24.0784 157.802 26.0314 157.133 27.523L156.755 27.5798L156.347 27.2451C156.006 25.6199 156.269 24.1328 156.54 22.5199Z" fill="var(--fill-0, #D77129)"/>
<path id="Vector_17" d="M40.5576 128.595C41.8331 129.587 41.4588 131.557 40.8778 132.844L40.2072 132.422C39.7654 131.107 40.1951 129.915 40.5576 128.595Z" fill="var(--fill-0, #D77129)"/>
<path id="Vector_18" d="M42.2105 133.599C43.2286 133.701 45.0891 133.637 45.4882 134.627L45.1538 135.06C44.1089 135.046 43.1602 135.394 42.3646 135.051C42.0008 134.313 42.1094 134.519 42.2105 133.599Z" fill="var(--fill-0, #D77129)"/>
<path id="Vector_19" d="M40.2905 135.429L40.8989 135.803C41.5082 137.303 41.3123 138.004 40.921 139.584C40.5708 139.478 40.5595 139.42 40.2644 139.191C39.7836 137.848 39.9207 136.775 40.2905 135.429Z" fill="var(--fill-0, #D77129)"/>
<path id="Vector_20" d="M36.4458 133.708C37.4031 133.75 38.4433 133.63 39.0271 134.259L38.936 135.04C37.9081 135.124 36.9272 135.346 36.0904 134.894C36.0348 134.197 36.0437 134.425 36.4458 133.708Z" fill="var(--fill-0, #D77129)"/>
<path id="Vector_21" d="M32.9194 51.165C34.0485 51.9139 33.9781 53.1274 33.5379 54.2986C32.1083 53.8839 32.2405 52.1745 32.9194 51.165Z" fill="var(--fill-0, #D77129)"/>
<path id="Vector_22" d="M29.2781 55.1109C30.3272 55.0964 31.2949 54.9049 31.8405 55.8797L31.4979 56.5286C30.607 56.4605 29.6232 56.5619 29.1172 56.0236L29.2781 55.1109Z" fill="var(--fill-0, #D77129)"/>
<path id="Vector_23" d="M32.1079 57.196C32.6333 57.2251 32.7409 57.2883 33.2424 57.4717C33.803 58.0392 33.7513 59.102 33.8037 59.9326C33.4907 59.9582 33.3244 59.9176 33.0148 59.8797C32.3732 59.2913 32.2785 58.098 32.1079 57.196Z" fill="var(--fill-0, #D77129)"/>
</g>
</svg>
