<svg preserveAspectRatio="none" width="100%" height="100%" overflow="visible" style="display: block;" viewBox="0 0 14 20" fill="none" xmlns="http://www.w3.org/2000/svg">
<g id="Icon">
<path id="Icon_2" fill-rule="evenodd" clip-rule="evenodd" d="M7 5.43248L11.6 6.42915V12.3349C11.6 13.2831 11.0838 14.1561 10.253 14.6131L7 16.4022L3.74701 14.6131C2.91619 14.1561 2.4 13.2831 2.4 12.3349V6.42915L7 5.43248ZM3.07233 15.8398L7 18L10.9277 15.8398C12.2059 15.1368 13 13.7937 13 12.3349V6.10654C13 5.63585 12.6718 5.22888 12.2118 5.12921L7 4L1.78825 5.12921C1.32824 5.22888 1 5.63585 1 6.10654V12.3349C1 13.7937 1.79413 15.1368 3.07233 15.8398ZM6.99498 12.995L10.495 9.49497L9.50503 8.50503L6.5 11.5101L4.99497 10.005L4.00503 10.995L6.00503 12.995L6.5 13.49L6.99498 12.995Z" fill="var(--fill-0, #00B253)"/>
</g>
</svg>
