<svg preserveAspectRatio="none" width="100%" height="100%" overflow="visible" style="display: block;" viewBox="0 0 14 20" fill="none" xmlns="http://www.w3.org/2000/svg">
<g id="Icon" clip-path="url(#clip0_27_166)">
<path id="Icon_2" d="M6.54426 3.79167C6.72364 3.40278 7.27636 3.40278 7.45574 3.79167L9.14793 7.46034C9.22104 7.61883 9.37124 7.72796 9.54458 7.74852L13.5566 8.22421C13.9819 8.27463 14.1527 8.8003 13.8383 9.09107L10.8721 11.8341C10.7439 11.9526 10.6865 12.1292 10.7206 12.3004L11.5079 16.2631C11.5914 16.6831 11.1442 17.008 10.7705 16.7988L7.24514 14.8254C7.09283 14.7402 6.90717 14.7402 6.75486 14.8254L3.22946 16.7988C2.85575 17.008 2.4086 16.6831 2.49206 16.2631L3.27944 12.3004C3.31345 12.1292 3.25608 11.9526 3.12793 11.8341L0.16174 9.09107C-0.15269 8.8003 0.0181088 8.27463 0.443402 8.22421L4.45542 7.74852C4.62876 7.72796 4.77896 7.61883 4.85207 7.46034L6.54426 3.79167Z" fill="var(--fill-0, #F9A021)"/>
</g>
<defs>
<clipPath id="clip0_27_166">
<rect width="14" height="20" fill="white"/>
</clipPath>
</defs>
</svg>
